<?xml version="1.0" encoding="UTF-8"?>
<svg width="23px" height="23px" viewBox="0 0 23 23" version="1.1" xmlns="http://www.w3.org/2000/svg" xmlns:xlink="http://www.w3.org/1999/xlink">
    <!-- Generator: Sketch 55.1 (78136) - https://sketchapp.com -->
    <title>instagram-brands</title>
    <desc>Created with Sketch.</desc>
    <g id="Icons" stroke="none" stroke-width="1" fill="none" fill-rule="evenodd">
        <g id="Podcast-Copy" transform="translate(-625.000000, -510.000000)" fill="#9151BD" fill-rule="nonzero">
            <g id="Instagram-Button" transform="translate(615.000000, 498.000000)">
                <g id="instagram-brands" transform="translate(10.300000, 12.552050)">
                    <path d="M11.255,5.5 C8.075,5.5 5.51,8.065 5.51,11.245 C5.51,14.425 8.075,16.99 11.255,16.99 C14.435,16.99 17,14.425 17,11.245 C17,8.065 14.435,5.5 11.255,5.5 Z M11.255,14.98 C9.2,14.98 7.52,13.305 7.52,11.245 C7.52,9.185 9.195,7.51 11.255,7.51 C13.315,7.51 14.99,9.185 14.99,11.245 C14.99,13.305 13.31,14.98 11.255,14.98 L11.255,14.98 Z M18.575,5.265 C18.575,6.01 17.975,6.605 17.235,6.605 C16.49,6.605 15.895,6.005 15.895,5.265 C15.895,4.525 16.495,3.925 17.235,3.925 C17.975,3.925 18.575,4.525 18.575,5.265 Z M22.38,6.625 C22.295,4.83 21.885,3.24 20.57,1.93 C19.26,0.62 17.67,0.21 15.875,0.12 C14.025,0.015 8.48,0.015 6.63,0.12 C4.84,0.205 3.25,0.615 1.935,1.925 C0.62,3.235 0.215,4.825 0.125,6.62 C0.02,8.47 0.02,14.015 0.125,15.865 C0.21,17.66 0.62,19.25 1.935,20.56 C3.25,21.87 4.835,22.28 6.63,22.37 C8.48,22.475 14.025,22.475 15.875,22.37 C17.67,22.285 19.26,21.875 20.57,20.56 C21.88,19.25 22.29,17.66 22.38,15.865 C22.485,14.015 22.485,8.475 22.38,6.625 Z M19.99,17.85 C19.6,18.83 18.845,19.585 17.86,19.98 C16.385,20.565 12.885,20.43 11.255,20.43 C9.625,20.43 6.12,20.56 4.65,19.98 C3.67,19.59 2.915,18.835 2.52,17.85 C1.935,16.375 2.07,12.875 2.07,11.245 C2.07,9.615 1.94,6.11 2.52,4.64 C2.91,3.66 3.665,2.905 4.65,2.51 C6.125,1.925 9.625,2.06 11.255,2.06 C12.885,2.06 16.39,1.93 17.86,2.51 C18.84,2.9 19.595,3.655 19.99,4.64 C20.575,6.115 20.44,9.615 20.44,11.245 C20.44,12.875 20.575,16.38 19.99,17.85 Z" id="Shape"></path>
                </g>
            </g>
        </g>
    </g>
</svg>