<?xml version="1.0" encoding="UTF-8"?>
<svg width="23px" height="23px" viewBox="0 0 23 23" version="1.1" xmlns="http://www.w3.org/2000/svg" xmlns:xlink="http://www.w3.org/1999/xlink">
    <!-- Generator: Sketch 55.1 (78136) - https://sketchapp.com -->
    <title>linkedin-in-brands</title>
    <desc>Created with Sketch.</desc>
    <g id="Icons" stroke="none" stroke-width="1" fill="none" fill-rule="evenodd">
        <g id="Podcast-Copy" transform="translate(-625.000000, -569.000000)" fill="#0177B5" fill-rule="nonzero">
            <g id="Instagram-Button-Copy" transform="translate(615.000000, 558.000000)">
                <g id="linkedin-in-brands" transform="translate(10.300000, 11.300000)">
                    <path d="M5.014,22.4 L0.37,22.4 L0.37,7.445 L5.014,7.445 L5.014,22.4 Z M2.6895,5.405 C1.2045,5.405 0,4.175 0,2.69 C0,1.20463018 1.20413018,0.000500040077 2.6895,0.000500040077 C4.17486982,0.000500040077 5.379,1.20463018 5.379,2.69 C5.379,4.175 4.174,5.405 2.6895,5.405 Z M22.395,22.4 L17.761,22.4 L17.761,15.12 C17.761,13.385 17.726,11.16 15.3465,11.16 C12.932,11.16 12.562,13.045 12.562,14.995 L12.562,22.4 L7.923,22.4 L7.923,7.445 L12.377,7.445 L12.377,9.485 L12.442,9.485 C13.062,8.31 14.5765,7.07 16.836,7.07 C21.536,7.07 22.4,10.165 22.4,14.185 L22.4,22.4 L22.395,22.4 Z" id="Shape"></path>
                </g>
            </g>
        </g>
    </g>
</svg>