<?xml version="1.0" encoding="UTF-8"?>
<svg width="512px" height="512px" viewBox="0 0 512 512" version="1.1" xmlns="http://www.w3.org/2000/svg" xmlns:xlink="http://www.w3.org/1999/xlink">
    <!-- Generator: Sketch 55.1 (78136) - https://sketchapp.com -->
    <title>logo-dark-md</title>
    <desc>Created with Sketch.</desc>
    <g id="logo-dark-md" stroke="none" stroke-width="1" fill="none" fill-rule="evenodd">
        <rect fill="#FFFFFF" x="0" y="0" width="512" height="512"></rect>
        <g id="pedal-copy-20" transform="translate(24.000000, 155.000000)" fill="#011638">
            <g id="Group" transform="translate(0.000000, 1.501247)">
                <path d="M181.196599,200.498753 L100.25259,200.498753 C97.5979502,200.498753 95.0522464,199.443223 93.1764736,197.564769 L3.05592862,107.315392 C-0.842582563,103.411308 -0.842582563,97.0874454 3.05592862,93.1833612 L93.1764736,2.93398459 C95.0522464,1.05553033 97.5979502,1.76377354e-14 100.25259,0 L181.196599,0 L81.0903294,100.249377 L181.196599,200.498753 L170.991428,190.285972 L270.203508,90.8018997 L280.40868,101.014681 L181.196599,200.498753 Z" id="Combined-Shape"></path>
            </g>
            <g id="Group-Copy-2" transform="translate(322.074450, 101.451153) rotate(-180.000000) translate(-322.074450, -101.451153) translate(181.574450, 0.951153)">
                <path d="M181.196599,200.498753 L100.25259,200.498753 C97.5979502,200.498753 95.0522464,199.443223 93.1764736,197.564769 L3.05592862,107.315392 C-0.842582563,103.411308 -0.842582563,97.0874454 3.05592862,93.1833612 L93.1764736,2.93398459 C95.0522464,1.05553033 97.5979502,1.79945403e-13 100.25259,1.74742165e-13 L181.196599,1.74742165e-13 L81.0903294,100.249377 L181.196599,200.498753 L170.991193,190.285737 L270.026417,90.9789908 L280.231824,101.192007 L181.196599,200.498753 Z" id="Combined-Shape"></path>
            </g>
        </g>
    </g>
</svg>