<?xml version="1.0" encoding="UTF-8"?>
<svg width="26px" height="19px" viewBox="0 0 26 19" version="1.1" xmlns="http://www.w3.org/2000/svg" xmlns:xlink="http://www.w3.org/1999/xlink">
    <!-- Generator: Sketch 55.1 (78136) - https://sketchapp.com -->
    <title>Shape</title>
    <desc>Created with Sketch.</desc>
    <g id="Icons" stroke="none" stroke-width="1" fill="none" fill-rule="evenodd">
        <g id="Podcast-Copy" transform="translate(-624.000000, -905.000000)" fill="#007AFF" fill-rule="nonzero">
            <g id="Facebook-Button-Copy" transform="translate(615.000000, 798.000000)">
                <g id="envelope-regular-(1)" transform="translate(9.000000, 107.000000)">
                    <path d="M23.5625,0 L2.4375,0 C1.09128906,0 0,1.06330729 0,2.375 L0,16.625 C0,17.9366927 1.09128906,19 2.4375,19 L23.5625,19 C24.9087109,19 26,17.9366927 26,16.625 L26,2.375 C26,1.06330729 24.9087109,0 23.5625,0 Z M23.5625,2.375 L23.5625,4.3939974 C22.4238828,5.2974375 20.6086563,6.70225 16.7280039,9.66303385 C15.8727969,10.3184844 14.1787344,11.8931589 13,11.8748021 C11.8214688,11.8933568 10.1268477,10.318237 9.27199609,9.66303385 C5.39195313,6.70269531 3.57626953,5.29758594 2.4375,4.3939974 L2.4375,2.375 L23.5625,2.375 Z M2.4375,16.625 L2.4375,7.44156771 C3.60110156,8.34461198 5.25123828,9.61182292 7.76638281,11.5308229 C8.87630859,12.382112 10.8200625,14.2613802 13,14.2499505 C15.1692227,14.2613802 17.0883477,12.409375 18.2331602,11.5312187 C20.7482539,9.61226823 22.3988477,8.34471094 23.5625,7.44156771 L23.5625,16.625 L2.4375,16.625 Z" id="Shape"></path>
                </g>
            </g>
        </g>
    </g>
</svg>