<?xml version="1.0" encoding="UTF-8"?>
<svg width="27px" height="21px" viewBox="0 0 27 21" version="1.1" xmlns="http://www.w3.org/2000/svg" xmlns:xlink="http://www.w3.org/1999/xlink">
    <!-- Generator: Sketch 55.1 (78136) - https://sketchapp.com -->
    <title>twitter-brands</title>
    <desc>Created with Sketch.</desc>
    <g id="Icons" stroke="none" stroke-width="1" fill="none" fill-rule="evenodd">
        <g id="Podcast-Copy" transform="translate(-623.000000, -630.000000)" fill="#1CA1F2" fill-rule="nonzero">
            <g id="Twitter-Button" transform="translate(615.000000, 618.000000)">
                <g id="twitter-brands" transform="translate(8.750000, 12.100000)">
                    <path d="M22.9685,5.1858 C22.98475,5.4132 22.98475,5.64065 22.98475,5.86805 C22.98475,12.80405 17.7056,20.79595 8.05685,20.79595 C5.08425,20.79595 2.32285,19.935 0,18.44065 C0.42235,18.48935 0.8284,18.5056 1.267,18.5056 C3.71975,18.5056 5.97765,17.6772 7.7807,16.264 C5.4741,16.21525 3.5411,14.7046 2.8751,12.6254 C3.2,12.6741 3.52485,12.7066 3.866,12.7066 C4.33705,12.7066 4.80815,12.6416 5.2467,12.52795 C2.84265,12.0406 1.03955,9.92895 1.03955,7.3787 L1.03955,7.31375 C1.738,7.7036 2.55025,7.94725 3.4111,7.9797 C1.9979,7.03755 1.07205,5.42945 1.07205,3.61015 C1.07205,2.63555 1.3319,1.74215 1.78675,0.96245 C4.3695,4.1462 8.25175,6.22535 12.605,6.4528 C12.5238,6.06295 12.47505,5.6569 12.47505,5.2508 C12.47505,2.3594 14.81415,0.0041 17.72175,0.0041 C19.2324,0.0041 20.59685,0.6376 21.55525,1.66095 C22.741,1.43355 23.87805,0.99495 24.8852,0.39395 C24.4953,1.61225 23.6669,2.6356 22.5786,3.2853 C23.63445,3.17165 24.6578,2.8792 25.5999,2.47315 C24.8853,3.5127 23.99185,4.43855 22.9685,5.1858 Z" id="Path"></path>
                </g>
            </g>
        </g>
    </g>
</svg>